<svg width="18" height="18" viewBox="0 0 18 18" fill="none" xmlns="http://www.w3.org/2000/svg">
<path d="M9 2C5.13131 2 2 5.13131 2 9C2 12.8687 5.13131 16 9 16C12.8687 16 16 12.8687 16 9C16 5.13131 12.8636 2 9 2ZM11.2273 6C11.5758 6 11.8586 6.28283 11.8586 6.63131C11.8586 6.9798 11.5758 7.26263 11.2273 7.26263C10.8788 7.26263 10.596 6.9798 10.596 6.63131C10.596 6.28283 10.8788 6 11.2273 6ZM4.89394 12.2172C4.40404 12.2172 4.09596 11.7374 4.34343 11.3586L7.19192 6.92424C7.43939 6.5404 8.05051 6.5404 8.29293 6.92424L11.1414 11.3586C11.3889 11.7424 11.0808 12.2172 10.5909 12.2172H4.89394ZM13.2828 12.202H10.9949C11.4192 12.1364 11.6667 11.7071 11.4394 11.3535L10.1919 9.40909L10.8434 8.39899C11.0202 8.12626 11.4596 8.12626 11.6364 8.39899L13.6818 11.5808C13.8586 11.8535 13.6364 12.197 13.2879 12.197L13.2828 12.202Z" fill="#374957"/>
</svg>
