<svg width="24" height="24" viewBox="0 0 24 24" fill="none" xmlns="http://www.w3.org/2000/svg">
<path d="M12 3C7.02597 3 3 7.02597 3 12C3 16.974 7.02597 21 12 21C16.974 21 21 16.974 21 12C21 7.02597 16.9675 3 12 3ZM14.8636 8.14286C15.3117 8.14286 15.6753 8.50649 15.6753 8.95455C15.6753 9.4026 15.3117 9.76623 14.8636 9.76623C14.4156 9.76623 14.0519 9.4026 14.0519 8.95455C14.0519 8.50649 14.4156 8.14286 14.8636 8.14286ZM6.72078 16.1364C6.09091 16.1364 5.69481 15.5195 6.01299 15.0325L9.67532 9.33117C9.99351 8.83766 10.7792 8.83766 11.0909 9.33117L14.7532 15.0325C15.0714 15.526 14.6753 16.1364 14.0455 16.1364H6.72078ZM17.5065 16.1169H14.5649C15.1104 16.0325 15.4286 15.4805 15.1364 15.026L13.5325 12.526L14.3701 11.2273C14.5974 10.8766 15.1623 10.8766 15.3896 11.2273L18.0195 15.3182C18.2468 15.6688 17.961 16.1104 17.513 16.1104L17.5065 16.1169Z" fill="#D10000"/>
</svg>
