<svg width="25" height="24" viewBox="0 0 25 24" fill="none" xmlns="http://www.w3.org/2000/svg">
<path d="M12.5 2C6.9733 2 2.5 6.4733 2.5 12C2.5 17.5267 6.9733 22 12.5 22C18.0267 22 22.5 17.5267 22.5 12C22.5 6.4733 18.0195 2 12.5 2ZM15.6818 7.71429C16.1797 7.71429 16.5837 8.11833 16.5837 8.61616C16.5837 9.114 16.1797 9.51804 15.6818 9.51804C15.184 9.51804 14.7799 9.114 14.7799 8.61616C14.7799 8.11833 15.184 7.71429 15.6818 7.71429ZM6.6342 16.596C5.93434 16.596 5.49423 15.9105 5.84776 15.3694L9.91703 9.03463C10.2706 8.48629 11.1436 8.48629 11.4899 9.03463L15.5592 15.3694C15.9127 15.9178 15.4726 16.596 14.7727 16.596H6.6342ZM18.6183 16.5743H15.3499C15.956 16.4805 16.3095 15.8672 15.9849 15.3622L14.2027 12.5844L15.1335 11.1414C15.386 10.7518 16.0137 10.7518 16.2662 11.1414L19.1883 15.6869C19.4408 16.0765 19.1234 16.5671 18.6255 16.5671L18.6183 16.5743Z" fill="#374957"/>
</svg>

