<svg width="24" height="24" viewBox="0 0 24 24" fill="none" xmlns="http://www.w3.org/2000/svg">
<path d="M6.31808 13.1012L4.80556 11.5264C4.59517 11.3073 4.34498 11.1238 4.0493 11.0705C3.5745 10.9847 3.11961 11.1268 2.77559 11.479C2.51687 11.7484 2.25531 12.0207 1.99659 12.2901L1.21758 13.1012C0.938956 13.3913 0.916214 13.9241 1.21758 14.2142C1.51895 14.5043 1.98521 14.5279 2.28658 14.2142L3.75646 12.6838C3.78773 12.6512 3.81901 12.6187 3.85028 12.5861C3.85597 12.5802 3.86165 12.5743 3.86734 12.5683C3.95263 12.4736 3.85312 12.6128 3.81048 12.6098C3.83607 12.595 3.86165 12.5802 3.88724 12.5654C3.77352 12.6128 3.75362 12.6216 3.83322 12.598C3.73371 12.6187 3.68823 12.6068 3.77352 12.6068C3.85881 12.6068 3.81616 12.6157 3.71381 12.598C3.8645 12.6305 3.56881 12.5003 3.6996 12.5831C3.83038 12.666 3.56882 12.447 3.68254 12.5654C3.6996 12.5832 3.71666 12.6009 3.73656 12.6216L5.26045 14.2082C5.53908 14.4983 6.05083 14.522 6.32945 14.2082C6.60808 13.8945 6.63082 13.409 6.32945 13.0952L6.31808 13.1012Z" fill="white"/>
<path d="M2.87512 12.1273C2.94336 15.3005 4.49284 18.2399 7.04878 19.9834C9.22658 21.4694 12.027 21.8867 14.5261 21.1319C16.013 20.6849 17.3521 19.8472 18.4524 18.7194C19.1433 18.012 18.08 16.899 17.3863 17.6094C15.7941 19.2375 13.6362 20.0752 11.4101 19.9124C9.18394 19.7496 6.97201 18.4412 5.70115 16.4727C4.86528 15.1762 4.41607 13.6843 4.37912 12.1303C4.35637 11.1179 2.84953 11.1179 2.87228 12.1303L2.87512 12.1273Z" fill="white"/>
<path d="M17.6819 10.8959L19.1944 12.4707C19.4048 12.6897 19.655 12.8732 19.9507 12.9265C20.4255 13.0124 20.8804 12.8703 21.2244 12.518C21.4831 12.2487 21.7447 11.9763 22.0034 11.707L22.7824 10.8959C23.061 10.6058 23.0838 10.073 22.7824 9.7829C22.4811 9.49281 22.0148 9.46913 21.7134 9.7829L20.2435 11.3133C20.2123 11.3458 20.181 11.3784 20.1497 11.411C20.144 11.4169 20.1383 11.4228 20.1327 11.4287C20.0474 11.5234 20.1469 11.3843 20.1895 11.3873C20.1639 11.4021 20.1383 11.4169 20.1128 11.4317C20.2265 11.3843 20.2464 11.3754 20.1668 11.3991C20.2663 11.3784 20.3118 11.3902 20.2265 11.3902C20.1412 11.3902 20.1838 11.3814 20.2862 11.3991C20.1355 11.3666 20.4312 11.4968 20.3004 11.4139C20.1696 11.331 20.4312 11.5501 20.3175 11.4317C20.3004 11.4139 20.2833 11.3962 20.2634 11.3754L18.7395 9.78882C18.4609 9.49873 17.9492 9.47505 17.6705 9.78882C17.3919 10.1026 17.3692 10.588 17.6705 10.9018L17.6819 10.8959Z" fill="white"/>
<path d="M21.1249 12C21.0965 8.80311 19.5612 5.83117 17.0081 4.05511C14.8218 2.53658 11.9929 2.10737 9.47108 2.86812C7.98698 3.31805 6.64504 4.1528 5.54477 5.28059C4.8539 5.98806 5.91721 7.10105 6.61093 6.39063C8.22012 4.74482 10.4036 3.91007 12.6553 4.09359C14.9071 4.27712 17.1304 5.64469 18.3813 7.65755C19.1888 8.95999 19.6067 10.4489 19.6209 11.9971C19.6294 13.0064 21.1391 13.0094 21.1277 11.9971L21.1249 12Z" fill="white"/>
<path d="M6.31808 13.1012L4.80556 11.5264C4.59517 11.3073 4.34498 11.1238 4.0493 11.0705C3.5745 10.9847 3.11961 11.1268 2.77559 11.479C2.51687 11.7484 2.25531 12.0207 1.99659 12.2901L1.21758 13.1012C0.938956 13.3913 0.916214 13.9241 1.21758 14.2142C1.51895 14.5043 1.98521 14.5279 2.28658 14.2142L3.75646 12.6838C3.78773 12.6512 3.81901 12.6187 3.85028 12.5861C3.85597 12.5802 3.86165 12.5743 3.86734 12.5683C3.95263 12.4736 3.85312 12.6128 3.81048 12.6098C3.83607 12.595 3.86165 12.5802 3.88724 12.5654C3.77352 12.6128 3.75362 12.6216 3.83322 12.598C3.73371 12.6187 3.68823 12.6068 3.77352 12.6068C3.85881 12.6068 3.81616 12.6157 3.71381 12.598C3.8645 12.6305 3.56881 12.5003 3.6996 12.5831C3.83038 12.666 3.56882 12.447 3.68254 12.5654C3.6996 12.5832 3.71666 12.6009 3.73656 12.6216L5.26045 14.2082C5.53908 14.4983 6.05083 14.522 6.32945 14.2082C6.60808 13.8945 6.63082 13.409 6.32945 13.0952L6.31808 13.1012Z" fill="white"/>
<path d="M2.87512 12.1273C2.94336 15.3005 4.49284 18.2399 7.04878 19.9834C9.22658 21.4694 12.027 21.8867 14.5261 21.1319C16.013 20.6849 17.3521 19.8472 18.4524 18.7194C19.1433 18.012 18.08 16.899 17.3863 17.6094C15.7941 19.2375 13.6362 20.0752 11.4101 19.9124C9.18394 19.7496 6.97201 18.4412 5.70115 16.4727C4.86528 15.1762 4.41607 13.6843 4.37912 12.1303C4.35637 11.1179 2.84953 11.1179 2.87228 12.1303L2.87512 12.1273Z" fill="white"/>
<path d="M17.6819 10.8959L19.1944 12.4707C19.4048 12.6897 19.655 12.8732 19.9507 12.9265C20.4255 13.0124 20.8804 12.8703 21.2244 12.518C21.4831 12.2487 21.7447 11.9763 22.0034 11.707L22.7824 10.8959C23.061 10.6058 23.0838 10.073 22.7824 9.7829C22.4811 9.49281 22.0148 9.46913 21.7134 9.7829L20.2435 11.3133C20.2123 11.3458 20.181 11.3784 20.1497 11.411C20.144 11.4169 20.1383 11.4228 20.1327 11.4287C20.0474 11.5234 20.1469 11.3843 20.1895 11.3873C20.1639 11.4021 20.1383 11.4169 20.1128 11.4317C20.2265 11.3843 20.2464 11.3754 20.1668 11.3991C20.2663 11.3784 20.3118 11.3902 20.2265 11.3902C20.1412 11.3902 20.1838 11.3814 20.2862 11.3991C20.1355 11.3666 20.4312 11.4968 20.3004 11.4139C20.1696 11.331 20.4312 11.5501 20.3175 11.4317C20.3004 11.4139 20.2833 11.3962 20.2634 11.3754L18.7395 9.78882C18.4609 9.49873 17.9492 9.47505 17.6705 9.78882C17.3919 10.1026 17.3692 10.588 17.6705 10.9018L17.6819 10.8959Z" fill="white"/>
<path d="M21.1249 12C21.0965 8.80311 19.5612 5.83117 17.0081 4.05511C14.8218 2.53658 11.9929 2.10737 9.47108 2.86812C7.98698 3.31805 6.64504 4.1528 5.54477 5.28059C4.8539 5.98806 5.91721 7.10105 6.61093 6.39063C8.22012 4.74482 10.4036 3.91007 12.6553 4.09359C14.9071 4.27712 17.1304 5.64469 18.3813 7.65755C19.1888 8.95999 19.6067 10.4489 19.6209 11.9971C19.6294 13.0064 21.1391 13.0094 21.1277 11.9971L21.1249 12Z" fill="white"/>
</svg>
