<svg width="24" height="24" viewBox="0 0 24 24" fill="none" xmlns="http://www.w3.org/2000/svg">
<g clip-path="url(#clip0_87_41)">
<path d="M2.73804 17.9979C1.96611 19.3313 2.92823 21 4.46889 21H19.5311C21.0718 21 22.0339 19.3313 21.262 17.9979L13.7309 4.98965C12.9605 3.65908 11.0395 3.65908 10.2691 4.98965L2.73804 17.9979ZM13 17C13 17.5523 12.5523 18 12 18C11.4477 18 11 17.5523 11 17C11 16.4477 11.4477 16 12 16C12.5523 16 13 16.4477 13 17ZM13 13C13 13.5523 12.5523 14 12 14C11.4477 14 11 13.5523 11 13V11C11 10.4477 11.4477 10 12 10C12.5523 10 13 10.4477 13 11V13Z" fill="#E0961E"/>
</g>
<defs>
<clipPath id="clip0_87_41">
<rect width="24" height="24" fill="white"/>
</clipPath>
</defs>
</svg>
